<?xml version="1.0" encoding="iso-8859-1"?>
<!-- Generator: Adobe Illustrator 16.0.0, SVG Export Plug-In . SVG Version: 6.00 Build 0)  -->
<!DOCTYPE svg PUBLIC "-//W3C//DTD SVG 1.1//EN" "http://www.w3.org/Graphics/SVG/1.1/DTD/svg11.dtd">
<svg version="1.1" id="Capa_1" xmlns="http://www.w3.org/2000/svg" xmlns:xlink="http://www.w3.org/1999/xlink" x="0px" y="0px" width="223.074px" height="223.073px" viewBox="0 0 223.074 223.073" style="enable-background:new 0 0 223.074 223.073;" xml:space="preserve">
	<g>
		<g>
			<path fill="#04AA79" d="M111.725,47.771c0-1.986-1.625-3.595-3.589-3.595c-1.978,0-3.586,1.603-3.586,3.595c0,0.653,0.165,1.266,0.18,1.909
			c2.318-0.214,4.569-0.433,7.113-0.621C111.859,48.627,111.725,48.228,111.725,47.771z" />
			<path fill="#04AA79" d="M197.939,47.771c0-1.986-1.611-3.595-3.591-3.595c-1.976,0-3.587,1.603-3.587,3.595c0,0.44-0.124,0.847-0.124,1.288
			c2.509,0.188,4.777,0.407,7.077,0.621C197.747,49.052,197.939,48.424,197.939,47.771z" />
			<path fill="#04AA79" d="M151.256,87.292c21.327,0,38.684-17.036,39.389-38.225c-11.329-0.817-24.821-1.288-39.389-1.288
			c-14.575,0-28.06,0.479-39.397,1.288C112.557,70.257,129.921,87.292,151.256,87.292z" />
			<path fill="#04AA79" d="M34.406,156.427c-4.262-2.974-6.961-7.266-6.961-12.175c0-4.889,2.699-9.185,6.961-12.158
			c-4.262-2.99-6.961-7.266-6.961-12.175c0-9.201,9.325-16.408,21.222-16.408h18.209c-5.723-12.113-13.094-11.806-13.094-24.824
			c0-4.262,0.126-7.889,0.092-10.966h1.805h17.132c0-6.869-7.686-12.427-17.132-12.427l-15.911-3.366l-4.585,3.366H6.164v3.288
			H0.627v5.851h5.536v3.288h20.913L8.155,92.725h6.625l17.556-23.183c-1.549,5.009-2.35,11.542-2.254,19.863
			C30.262,105.741,0,118.969,0,147.778c0,28.321,14.014,30.85,32.091,31.065c-2.865-2.789-4.646-6.303-4.646-10.242
			C27.453,163.696,30.144,159.416,34.406,156.427z" />
			<path fill="#04AA79" d="M197.731,49.697c-1.026,24.846-21.396,44.787-46.49,44.787c-25.099,0-45.457-19.941-46.502-44.787
			c-15.38,1.445-25.331,3.557-25.331,5.941l7.448,47.889h35.805c11.897,0,21.223,7.206,21.223,16.393
			c0,4.909-2.713,9.209-6.977,12.183c4.264,2.974,6.977,7.27,6.977,12.175c0,4.893-2.713,9.185-6.977,12.158
			c4.264,2.997,6.977,7.29,6.977,12.183c0,3.839-1.719,7.313-4.476,10.091c3.814,0.12,7.758,0.188,11.834,0.188
			c29.747,0,53.88-3.526,53.88-7.851l17.953-115.4C223.082,53.253,213.111,51.133,197.731,49.697z" />
			<path fill="#04AA79" d="M122.667,109.632H48.672c-8.33,0-15.106,4.608-15.106,10.287c0,5.675,6.776,10.291,15.106,10.291h73.995
			c8.336,0,15.104-4.616,15.104-10.291C137.771,114.24,131.003,109.632,122.667,109.632z" />
			<path fill="#04AA79" d="M48.672,133.98c-8.33,0-15.106,4.602-15.106,10.271c0,5.69,6.776,10.291,15.106,10.291h73.995
			c8.336,0,15.104-4.601,15.104-10.291c0-5.67-6.752-10.271-15.104-10.271H48.672z" />
			<path fill="#04AA79" d="M122.667,158.314H48.672c-8.33,0-15.106,4.601-15.106,10.287c0,5.682,6.776,10.283,15.106,10.283h73.995
			c8.336,0,15.104-4.602,15.104-10.283C137.771,162.915,131.003,158.314,122.667,158.314z" />
		</g>
	</g>
	<g></g>
	<g></g>
	<g></g>
	<g></g>
	<g></g>
	<g></g>
	<g></g>
	<g></g>
	<g></g>
	<g></g>
	<g></g>
	<g></g>
	<g></g>
	<g></g>
	<g></g>
</svg>
