<?xml version="1.0" encoding="utf-8"?>

<svg version="1.1" id="Icons" xmlns="http://www.w3.org/2000/svg" xmlns:xlink="http://www.w3.org/1999/xlink" x="0px" y="0px" viewBox="0 0 32 32" style="enable-background:new 0 0 32 32;" xml:space="preserve">
	<style type="text/css">
	.st0{fill:none;stroke:#000000;stroke-width:2;stroke-linecap:round;stroke-linejoin:round;stroke-miterlimit:10;}
</style>
	<g>
		<path fill="#04AA79" d="M13.5,5H14v2h-1c-0.6,0-1,0.4-1,1v1h8V8c0-0.6-0.4-1-1-1h-1V5c1.2,0.1,2.4,0.5,3.5,1.2l1,0.6C22.6,6.9,22.8,7,23,7
		c0.2,0,0.3,0,0.4-0.1l2-1c0.3-0.1,0.5-0.4,0.5-0.7c0.1-0.3,0-0.6-0.2-0.8l-0.6-0.8C23.5,1.4,20.8,0,18,0h-4.5C12.1,0,11,1.1,11,2.5
		S12.1,5,13.5,5z" />
		<path fill="#04AA79" d="M22.7,12.5c-0.2-0.9-1-1.5-1.9-1.5H20h-8h-0.7c-0.9,0-1.7,0.6-1.9,1.5L6.2,24c-0.5,1.9-0.1,3.9,1.1,5.5
		c1.2,1.6,3,2.5,5,2.5h7.3c2,0,3.8-0.9,5-2.5c1.2-1.6,1.6-3.6,1.1-5.5L22.7,12.5z M16,26c-2.2,0-4-1.8-4-3.9c0-2.5,3-5.5,3.3-5.8
		c0.4-0.4,1-0.4,1.4,0c0.3,0.3,3.3,3.3,3.3,5.8C20,24.2,18.2,26,16,26z" />
	</g>
</svg>
