<?xml version="1.0" encoding="UTF-8" standalone="no"?> <svg width="24px" height="24px" id="Layer_1" data-name="Layer 1" xmlns="http://www.w3.org/2000/svg" viewBox="0 0 128 128"><defs><style>.cls-1{fill:#2d3e50;}</style></defs><title>x</title><path class="cls-1" d="M118.52326,36.73483l-17.22791-20.5351a21.58065,21.58065,0,0,0-12.77347-7.3761L62.12027,4.16943A21.554,21.554,0,0,0,47.591,6.72877L24.37583,20.13394a21.5618,21.5618,0,0,0-9.48022,11.301L5.73123,56.62425A21.54433,21.54433,0,0,0,5.72658,71.3718l9.169,25.19395a21.5791,21.5791,0,0,0,9.48022,11.301L47.591,121.26731a21.55616,21.55616,0,0,0,14.52923,2.564l26.40161-4.65882a21.53362,21.53362,0,0,0,12.77347-7.3761l17.22791-20.53045a21.57094,21.57094,0,0,0,5.049-13.865V50.59519A21.55855,21.55855,0,0,0,118.52326,36.73483ZM94.30014,53.14523,61.17272,86.27264a8.10767,8.10767,0,0,1-11.50077,0L33.61919,70.21523a7.839,7.839,0,0,1-2.35032-5.69A8.1159,8.1159,0,0,1,45.14318,58.812L55.4595,69.12834,82.85975,41.72809a8.10237,8.10237,0,0,1,11.51934.02322,7.8508,7.8508,0,0,1,2.355,5.69A7.62208,7.62208,0,0,1,94.30014,53.14523Z"/></svg>