<svg width="671" height="671" viewBox="0 0 671 671" fill="none" xmlns="http://www.w3.org/2000/svg">
<rect width="671" height="671" rx="100" fill="#37AEF1"/>
<rect x="356" y="67" width="240" height="158" rx="8" fill="#F8F8F8"/>
<rect x="74" y="453" width="240" height="158" rx="8" fill="#F8F8F8"/>
<rect x="356" y="265" width="240" height="346" rx="8" fill="#F8F8F8"/>
<rect x="74" y="67" width="240" height="346" rx="8" fill="#F8F8F8"/>
<path d="M201.075 170H186.925V88.2422H201.075V170ZM226.344 280H212.137L175.694 221.995V280H161.488V198.242H175.694L212.25 256.472V198.242H226.344V280ZM193.888 372.2L214.664 308.242H230.274L200.851 390H187.093L157.782 308.242H173.336L193.888 372.2Z" fill="#37AEF1"/>
<path d="M449.291 336.924H428.231V395H416.588V336.924H395.714V327.461H449.291V336.924ZM553.549 362.993C553.549 369.611 552.405 375.425 550.117 380.435C547.828 385.413 544.55 389.248 540.283 391.938C536.046 394.598 531.16 395.928 525.625 395.928C520.151 395.928 515.265 394.598 510.966 391.938C506.699 389.248 503.39 385.429 501.04 380.481C498.72 375.533 497.545 369.827 497.514 363.364V359.561C497.514 352.974 498.674 347.16 500.993 342.119C503.343 337.078 506.637 333.228 510.874 330.569C515.141 327.878 520.027 326.533 525.532 326.533C531.036 326.533 535.907 327.863 540.144 330.522C544.411 333.151 547.705 336.955 550.024 341.934C552.343 346.882 553.518 352.649 553.549 359.236V362.993ZM541.813 359.468C541.813 351.984 540.391 346.248 537.546 342.258C534.732 338.269 530.727 336.274 525.532 336.274C520.46 336.274 516.486 338.269 513.61 342.258C510.765 346.217 509.312 351.829 509.25 359.097V362.993C509.25 370.415 510.688 376.152 513.564 380.203C516.471 384.254 520.491 386.279 525.625 386.279C530.82 386.279 534.809 384.3 537.592 380.342C540.406 376.383 541.813 370.601 541.813 362.993V359.468ZM428.834 518.977H415.753V545H404.017V477.461H427.767C435.56 477.461 441.575 479.208 445.812 482.703C450.048 486.197 452.167 491.253 452.167 497.871C452.167 502.386 451.069 506.174 448.873 509.236C446.708 512.266 443.678 514.601 439.781 516.24L454.95 544.397V545H442.379L428.834 518.977ZM415.753 509.561H427.813C431.772 509.561 434.864 508.571 437.091 506.592C439.317 504.582 440.431 501.845 440.431 498.381C440.431 494.763 439.395 491.965 437.323 489.985C435.282 488.006 432.22 486.986 428.138 486.924H415.753V509.561ZM525.856 509.468L541.396 477.461H554.384L531.748 520.137V545H519.965V520.137L497.282 477.461H510.317L525.856 509.468Z" fill="#37AEF1"/>
<path d="M408.225 111.461L427.708 163.229L447.144 111.461H462.312V179H450.623V156.734L451.782 126.954L431.836 179H423.44L403.54 127L404.7 156.734V179H393.01V111.461H408.225ZM536.863 143.468L552.403 111.461H565.391L542.754 154.137V179H530.972V154.137L508.289 111.461H521.324L536.863 143.468Z" fill="#37AEF1"/>
<path d="M159.809 533.849H132.07V554.63H164.494V564H120.334V496.461H164.17V505.924H132.07V524.571H159.809V533.849ZM267.527 564H255.791L225.686 516.083V564H213.95V496.461H225.686L255.884 544.564V496.461H267.527V564Z" fill="#37AEF1"/>
</svg>
