<svg width="58" height="42" viewBox="0 0 58 42" fill="#000" xmlns="http://www.w3.org/2000/svg">
<path d="M41 6.5C38.5 5.49994 28.5 0.599969 4.5 0.999969C35.3597 10.6889 32.5 9.5 35.5 14C37.5 17 34 21 33.5 24.5L33 29.5C33.5 31.5 34.0142 34.0609 35.5 35.6875C38.1312 38.5681 40.5 40.5 42.5 41C53 42 60 36 57 23C53.5 12 43.5 7.50006 41 6.5Z" fill="black" stroke="black" stroke-width="0.25"/>
<path d="M11.5 8.49967C11.0615 8.13297 2.65724 7.00685 3.00004 8.49967C2.3616 8.75815 7.76008 11.4604 9.00004 11.9997C10.24 12.5389 23.3979 15.9242 29.5 16.9997C35.6022 18.0751 33.7224 17.2355 34.5 16.9997C34.5024 16.7378 29.3551 13.6615 24.5 11.9997C17.6278 9.89777 14.2703 8.92338 11.5 8.49967Z" fill="black" stroke="black" stroke-width="0.25"/>
<path d="M10.5523 24.7527C10.1137 24.386 1.70946 23.2599 2.05226 24.7527C1.41382 25.0112 6.8123 27.7135 8.05226 28.2527C9.29222 28.7919 22.4501 32.1773 28.5523 33.2527C34.6544 34.3281 32.7746 33.4886 33.5523 33.2527C33.5546 32.9909 28.4073 29.9146 23.5523 28.2527C16.68 26.1508 13.3225 25.1764 10.5523 24.7527Z" fill="black" stroke="black" stroke-width="0.25"/>
<path d="M9.55226 15.7527C9.11367 15.386 0.709456 14.2599 1.05226 15.7527C0.413818 16.0112 5.8123 18.7135 7.05226 19.2527C8.29222 19.7919 21.4501 23.1773 27.5523 24.2527C33.6544 25.3281 31.7746 24.4886 32.5523 24.2527C32.5546 23.9909 27.4073 20.9146 22.5523 19.2527C15.68 17.1508 12.3225 16.1764 9.55226 15.7527Z" fill="black" stroke="black" stroke-width="0.25"/>
</svg>
